# xmcd
#
# Track frame offsets: 
#        150
#        15893
#        26517
#        41297
#        56260
#        73332
#        102061
#        117063
#        131257
#        156052
#        169602
#        182867
#
# Disc length: 2656 seconds
#
# Revision: 0
# Processed by: cddbd v1.5.2PL0 Copyright (c) Steve Scherf et al.
# Submitted via: ExactAudioCopy v0.99pb4
#
DISCID=870a5e0c
DTITLE=Jeff Cook and the Allstar Goodtime Band - Ashes Won't Burn
DYEAR=2009
DGENRE=Country
TTITLE0=Ashes Won't Burn
TTITLE1=I Feel Fine
TTITLE2=If I Could Just See You Now
TTITLE3=Mist Of Desire
TTITLE4=Knockin' On Heaven's Door
TTITLE5=Brick House
TTITLE6=Kissing A Fool
TTITLE7=Monkey Around
TTITLE8=All Right Now
TTITLE9=A Million Times Today
TTITLE10=Wonderful Waste Of Time
TTITLE11=King Bee
EXTD=
EXTT0=
EXTT1=
EXTT2=
EXTT3=
EXTT4=
EXTT5=
EXTT6=
EXTT7=
EXTT8=
EXTT9=
EXTT10=
EXTT11=
PLAYORDER=
